<svg fill="none" xmlns="http://www.w3.org/2000/svg" viewBox="0 0 89 30">
  <g clip-path="url(#qOXuZ5e5Cw0ua)">
    <path d="M37.566 15.337c0 4.152-3.243 7.21-7.222 7.21-3.979 0-7.22-3.058-7.22-7.21 0-4.18 3.242-7.21 7.22-7.21 3.98 0 7.222 3.03 7.222 7.21zm-3.161 0c0-2.594-1.88-4.369-4.06-4.369-2.181 0-4.06 1.775-4.06 4.37 0 2.567 1.878 4.368 4.06 4.368 2.18 0 4.06-1.804 4.06-4.369z" fill="#EA4335"/>
    <path d="M53.144 15.337c0 4.152-3.242 7.21-7.221 7.21-3.98 0-7.221-3.058-7.221-7.21 0-4.177 3.242-7.21 7.22-7.21 3.98 0 7.222 3.03 7.222 7.21zm-3.161 0c0-2.594-1.88-4.369-4.06-4.369-2.181 0-4.06 1.775-4.06 4.37 0 2.567 1.879 4.368 4.06 4.368 2.18 0 4.06-1.804 4.06-4.369z" fill="#FBBC05"/>
    <path d="M68.075 8.562v12.945c0 5.325-3.135 7.5-6.842 7.5-3.489 0-5.588-2.338-6.38-4.25l2.752-1.147c.49 1.174 1.69 2.559 3.625 2.559 2.373 0 3.843-1.466 3.843-4.226v-1.037h-.11c-.708.874-2.071 1.638-3.791 1.638-3.6 0-6.897-3.14-6.897-7.181 0-4.07 3.297-7.236 6.897-7.236 1.717 0 3.08.764 3.79 1.612h.11V8.566h3.003v-.004zm-2.778 6.801c0-2.539-1.691-4.395-3.843-4.395-2.18 0-4.008 1.856-4.008 4.395 0 2.513 1.827 4.343 4.008 4.343 2.152 0 3.843-1.83 3.843-4.343z" fill="#4285F4"/>
    <path d="M73.024.975v21.13h-3.083V.975h3.083z" fill="#34A853"/>
    <path d="M85.039 17.71l2.453 1.64c-.791 1.173-2.7 3.195-5.997 3.195-4.09 0-7.144-3.167-7.144-7.21 0-4.289 3.08-7.211 6.79-7.211 3.735 0 5.563 2.978 6.16 4.587l.328.82-9.623 3.991c.737 1.447 1.882 2.185 3.489 2.185 1.61 0 2.726-.794 3.544-1.996zm-7.552-2.594l6.432-2.675c-.354-.9-1.418-1.528-2.671-1.528-1.607 0-3.843 1.42-3.761 4.204z" fill="#EA4335"/>
    <path d="M11.455 13.461v-3.059h10.291c.1.534.153 1.164.153 1.847 0 2.295-.627 5.133-2.645 7.155-1.964 2.048-4.473 3.14-7.796 3.14-6.16 0-11.34-5.026-11.34-11.196S5.298.153 11.458.153c3.408 0 5.835 1.339 7.66 3.085l-2.156 2.158c-1.308-1.229-3.08-2.184-5.507-2.184-4.499 0-8.017 3.63-8.017 8.136 0 4.506 3.518 8.137 8.017 8.137 2.917 0 4.58-1.173 5.644-2.24.863-.864 1.43-2.1 1.655-3.787l-7.3.003z" fill="#4285F4"/>
  </g>
  <defs>
    <clipPath id="qOXuZ5e5Cw0ua">
      <path fill="#fff" d="M0 0h88.278v29.908H0z"/>
    </clipPath>
  </defs>
</svg>
