<svg fill="none" xmlns="http://www.w3.org/2000/svg" viewBox="0 0 24 24">
  <path d="M23.993 12c0-6.627-5.371-12-11.996-12C5.37 0 0 5.373 0 12s5.371 12 11.996 12c6.626 0 11.997-5.373 11.997-12z" fill="#000"/>
  <path d="M19.55 9.513c-.094-.911-.297-1.919-1.045-2.448-.579-.411-1.34-.426-2.05-.425-1.503 0-3.006.002-4.508.003l-4.335.004c-.603 0-1.19-.046-1.75.215-.482.225-.859.651-1.085 1.126-.315.66-.38 1.408-.419 2.138a34.65 34.65 0 00.021 3.992c.062.97.218 2.042.967 2.66.665.547 1.602.574 2.464.575l8.205.007c.35 0 .717-.006 1.074-.045.703-.076 1.373-.277 1.825-.799.456-.525.573-1.256.642-1.948a24.97 24.97 0 00-.005-5.055zm-9.184 4.841v-4.71L14.442 12l-4.076 2.355z" fill="#fff"/>
</svg>
