<svg fill="none" xmlns="http://www.w3.org/2000/svg" viewBox="0 0 82 54">
  <g clip-path="url(#g2V0Fzoy8ECla)">
    <path d="M41 .373C18.567.373.379 12.293.379 26.995.379 41.7 18.567 53.627 41 53.627c22.433 0 40.621-11.92 40.621-26.632C81.621 12.283 63.433.373 41 .373zm0 41.825c-3.337 0-6.06-6.658-6.23-15.036a70.515 70.515 0 0012.46 0c-.17 8.373-2.893 15.036-6.23 15.036zM35.181 20.51c.908-5.923 3.171-10.125 5.819-10.125s4.911 4.202 5.819 10.125a65.184 65.184 0 01-11.638 0zM41 4.224c-4.356 0-8.072 6.61-9.444 15.837-8.259-1.304-14.024-4.278-14.024-7.735 0-4.662 10.506-8.443 23.468-8.443s23.468 3.781 23.468 8.443c0 3.457-5.765 6.431-14.024 7.735C49.072 10.834 45.356 4.224 41 4.224zM6.203 26c0-4.51 1.714-8.745 4.698-12.38a6.209 6.209 0 00-.053.773c0 5.685 8.414 10.531 20.153 12.316-.01.411-.01.828-.01 1.244 0 10.595 2.93 19.568 6.982 22.613C20.17 49.478 6.203 38.895 6.203 26zm37.824 24.567c4.052-3.046 6.983-12.019 6.983-22.614 0-.422-.006-.833-.01-1.244 11.733-1.785 20.152-6.626 20.152-12.316 0-.26-.021-.519-.053-.773 2.984 3.645 4.698 7.87 4.698 12.38 0 12.895-13.966 23.48-31.77 24.567z" fill="#000"/>
  </g>
  <defs>
    <clipPath id="g2V0Fzoy8ECla">
      <path fill="#fff" d="M0 0h82v54H0z"/>
    </clipPath>
  </defs>
</svg>
