<svg fill="none" xmlns="http://www.w3.org/2000/svg" viewBox="0 0 55 54">
  <g clip-path="url(#SPYBkMbMmOyZa)">
    <path d="M27.5 0C12.313 0 0 12.09 0 27s12.313 27 27.5 27S55 41.91 55 27 42.687 0 27.5 0zm0 1.755c14.2 0 25.71 11.302 25.71 25.245 0 13.941-11.508 25.243-25.71 25.243C13.299 52.243 1.79 40.94 1.79 27 1.79 13.059 13.3 1.755 27.5 1.755zm-1.554 1.417a35.38 35.38 0 00-2.273.176l-.245 6.624c.54-.09 1.082-.16 1.627-.211l.16-4.473-.03-.309.099.293 1.522 3.35h1.388l1.522-3.348.092-.295-.023.308.16 4.474c.532.049 1.084.121 1.627.211l-.25-6.624a34.407 34.407 0 00-2.273-.175l-1.496 3.656-.053.27-.053-.27-1.5-3.656zm15.345 4.105l-3.536 5.462c.447.338 1.036.835 1.414 1.175l3.33-1.697.21-.155-.157.212-1.724 3.269c.374.394.912 1.03 1.215 1.418l5.569-3.474a35.75 35.75 0 00-1.055-1.278l-3.526 2.281-.241.207.179-.259 1.558-3.05-1.1-1.08-3.107 1.53-.264.175.209-.239 2.332-3.462a36.275 36.275 0 00-1.306-1.035zm-28.687 1.24c-.825.083-1.462.636-3.192 2.53a42.88 42.88 0 00-1.735 2.057l4.753 4.426c1.574-1.71 2.214-2.345 3.456-3.63.878-.91 1.375-1.957.495-2.963-.477-.544-1.279-.663-1.948-.393l-.064.022.023-.059a1.548 1.548 0 00-.025-.908 1.575 1.575 0 00-.532-.743 1.69 1.69 0 00-1.23-.34zm.014 1.383c.312-.083.635.135.706.45.073.315-.129.612-.353.86-.504.562-2.363 2.47-2.363 2.47l-.921-.862c.956-1.147 1.973-2.191 2.434-2.605.138-.142.308-.249.497-.313zM27.5 10.987a16.475 16.475 0 00-10.928 4.122 15.908 15.908 0 00-5.297 10.25v.005a15.756 15.756 0 001.005 7.375 16.019 16.019 0 004.289 6.134 16.412 16.412 0 006.648 3.571c2.47.662 5.065.743 7.574.238a16.352 16.352 0 009.353-5.565A15.824 15.824 0 0043.807 27a15.877 15.877 0 00-4.78-11.316A16.474 16.474 0 0027.5 10.991v-.004zm-12.689.544c.108 0 .22.03.32.097a.55.55 0 01.244.585c-.06.268-.287.52-.47.716l-2.395 2.52-.962-.9s1.803-1.872 2.395-2.473c.233-.239.385-.383.545-.462a.78.78 0 01.323-.083zm12.689 1.56a14.378 14.378 0 015.424 1.054 14.17 14.17 0 014.598 3.015 13.878 13.878 0 013.071 4.515A13.675 13.675 0 0141.667 27H27.5v13.91a14.378 14.378 0 01-5.424-1.055 14.17 14.17 0 01-4.598-3.015 13.878 13.878 0 01-3.071-4.515A13.675 13.675 0 0113.333 27H27.5V13.09z" fill="#000"/>
  </g>
  <defs>
    <clipPath id="SPYBkMbMmOyZa">
      <path fill="#fff" d="M0 0h55v54H0z"/>
    </clipPath>
  </defs>
</svg>
